<?xml version="1.0" encoding="UTF-8"?>
<!DOCTYPE svg PUBLIC "-//W3C//DTD SVG 1.1//EN" "http://www.w3.org/Graphics/SVG/1.1/DTD/svg11.dtd">
<!-- Creator: CorelDRAW 2017 -->
<svg xmlns="http://www.w3.org/2000/svg" xml:space="preserve" width="11.7in" height="11.7in" version="1.1" style="shape-rendering:geometricPrecision; text-rendering:geometricPrecision; image-rendering:optimizeQuality; fill-rule:evenodd; clip-rule:evenodd"
viewBox="0 0 11700 11700"
 xmlns:xlink="http://www.w3.org/1999/xlink">
 <defs>
  <style type="text/css">
   <![CDATA[
    .str0 {stroke:#131516;stroke-width:1000}
    .str2 {stroke:#1F1A17;stroke-width:1000}
    .str3 {stroke:#373435;stroke-width:6.94488}
    .str1 {stroke:#3C3E42;stroke-width:3}
    .fil2 {fill:none}
    .fil3 {fill:black}
    .fil0 {fill:#131516}
    .fil4 {fill:#FEFEFE}
    .fil1 {fill:white}
   ]]>
  </style>
 </defs>
 <g id="Layer_x0020_1">
  <metadata id="CorelCorpID_0Corel-Layer"/>
  <g id="_857353328">
   <polygon id="svg_5" class="fil0 str0" points="7798,3255 8583,3256 9367,3256 9921,3256 10705,3256 11489,3255 11489,3930 11379,3930 11379,4714 11489,4714 11489,5268 11379,5268 11379,6052 11489,6052 11489,6837 10705,6837 10705,6726 9921,6726 9921,6837 9367,6837 9367,6726 8583,6726 8583,6837 7798,6837 7798,6052 7909,6052 7909,5268 7798,5268 7798,4714 7909,4714 7909,3930 7798,3930 "/>
   <rect id="svg_32" class="fil1 str0" x="10558" y="3333" width="125" height="729"/>
   <rect id="svg_33" class="fil1 str0" x="8537" y="3333" width="125" height="729"/>
   <rect class="fil2 str1" x="8205" y="5940" width="512" height="512"/>
  </g>
  <g id="_857349776">
   <rect id="svg_23" class="fil1 str0" transform="matrix(-0.999998 -0.00190309 0.00190309 -0.999998 10828.6 3105.38)" width="118" height="729"/>
   <rect id="svg_30" class="fil1 str0" transform="matrix(-0.999998 -0.00190309 0.00190309 -0.999998 8495.51 3097.57)" width="118" height="729"/>
   <polyline id="svg_26" class="fil2 str0" points="11482,209 11482,694 11482,1248 11482,1802 11482,2494 11480,3184 10697,3186 9913,3186 9359,3186 8575,3186 7784,3188 7791,2494 7791,1802 7791,1248 7791,694 7791,197 "/>
   <line class="fil2 str1" x1="7790" y1="200" x2="11487" y2= "200" />
  </g>
  <g id="_857341840">
   <polyline id="svg_31" class="fil2 str0" points="3968,8965 5821,8967 7668,8966 "/>
   <polyline id="svg_26_0" class="fil2 str0" points="7655,8973 7655,9655 7544,9655 7544,10236 6870,10236 6870,10347 6086,10347 6086,10236 5532,10236 5532,10347 4748,10347 4748,10236 4074,10236 4074,9655 3963,9655 3963,8963 "/>
   <circle class="fil2 str2" cx="5750" cy="9363" r="118"/>
  </g>
  <polygon id="svg_8" class="fil0 str0" points="3813,384 3805,4005 3916,4005 3916,4587 3131,4587 3131,4697 2347,4697 2347,4587 1793,4587 1793,4697 1009,4697 1009,4587 225,4587 225,4005 335,4005 335,3313 225,3313 225,2760 335,2760 334,2206 224,2206 224,1652 334,1652 334,960 224,960 224,379 1008,379 1008,268 1792,268 1792,379 2346,379 2346,268 3130,268 3130,379 "/>
  <g id="_857350224">
   <ellipse class="fil2 str3" transform="matrix(-2.41574E-14 0.304044 -0.327434 -2.60158E-14 2798.66 4300.59)" rx="194" ry="180"/>
   <ellipse class="fil2 str3" transform="matrix(-2.41574E-14 0.304044 -0.327434 -2.60158E-14 2798.66 2332.08)" rx="194" ry="180"/>
   <ellipse class="fil2 str3" transform="matrix(-2.41574E-14 0.304044 -0.327434 -2.60158E-14 2365.59 4300.59)" rx="194" ry="180"/>
   <ellipse class="fil2 str3" transform="matrix(-2.41574E-14 0.304044 -0.327434 -2.60158E-14 2365.59 2332.08)" rx="194" ry="180"/>
  </g>
  <g id="_853339360">
   <circle class="fil2 str3" cx="8490" cy="8695" r="39"/>
   <path class="fil3" d="M9971 7315l-222 0 0 204 190 0c9,34 60,78 99,91 44,15 142,33 180,56l11 7c25,14 48,22 79,48 8,7 15,15 23,23 5,5 7,7 12,13l12 13c13,15 25,42 32,63 41,115 63,411 63,554 0,22 3,27 4,46 0,16 -1,34 0,49 1,16 3,25 3,46 -76,-6 -264,-32 -331,-35 -28,-1 -55,-5 -84,-8 -40,-4 -131,-14 -170,-13l-88 -4c-141,0 -181,2 -324,14 -50,4 -180,25 -208,25 -5,-10 -9,-21 -15,-31 -6,-10 -11,-19 -17,-29 -83,-139 -250,-236 -426,-236 -277,0 -504,227 -504,504 0,277 227,504 504,504 54,0 121,-11 161,-26 24,-9 45,-17 67,-28l60 -36c10,-7 17,-13 26,-20 27,-20 51,-49 71,-70 18,-18 67,-91 73,-117 35,0 182,23 236,28 158,14 193,18 352,18 18,0 38,1 55,-1l156 -13c60,-4 361,-40 411,-48 55,-8 115,82 288,24 19,-6 70,-25 87,-26l30 -111c68,-270 66,-537 -20,-796l-35 -92c0,-1 -1,-2 -1,-2 -33,-63 -42,-86 -83,-153l-131 -172 -64 -60c-17,-17 -37,-44 -60,-63 -10,-9 -8,-4 -17,-15 -15,-19 -27,-29 -49,-43 -51,-34 -107,-59 -165,-82l-43 -21c-150,-73 -212,22 -230,22z"/>
   <polygon class="fil3" points="8305,7734 9284,7734 9284,7378 8305,7378 "/>
   <polygon class="fil4" points="8717,7653 8830,7653 8830,7442 8717,7442 "/>
   <circle class="fil2 str3" cx="9117" cy="8698" r="39"/>
  </g>
  <g id="_853336672">
   <path class="fil3" d="M244 9787c0,18 4,19 4,39l506 1 0 129 717 2 0 -337c0,-29 -159,-95 -204,-108 -240,-69 -546,-72 -779,22 -42,17 -84,39 -121,64 -13,9 -23,18 -36,28 -19,15 -45,45 -59,66 -13,20 -29,62 -29,95z"/>
   <circle class="fil2 str3" cx="440" cy="9714" r="30"/>
  </g>
  <g id="_853344288">
   <path class="fil3" d="M1699 9780c0,18 4,19 4,39l506 1 0 129 717 2 0 -337c0,-29 -159,-95 -204,-108 -240,-69 -546,-72 -779,22 -42,17 -84,39 -121,64 -13,9 -23,18 -36,28 -19,15 -45,45 -59,66 -13,20 -29,62 -29,95z"/>
   <circle class="fil2 str3" cx="1895" cy="9707" r="30"/>
  </g>
  <g id="_853351296">
   <path class="fil3" d="M314 10551c0,18 4,19 4,39l506 1 0 129 717 2 0 -337c0,-29 -159,-95 -204,-108 -240,-69 -546,-72 -779,22 -42,17 -84,39 -121,64 -13,9 -23,18 -36,28 -19,15 -45,45 -59,66 -13,20 -29,62 -29,95z"/>
   <circle class="fil2 str3" cx="690" cy="10471" r="30"/>
  </g>
  <g id="_853333088">
   <path class="fil3" d="M1765 10509c0,18 4,19 4,39l506 1 0 129 717 2 0 -337c0,-29 -159,-95 -204,-108 -240,-69 -546,-72 -779,22 -42,17 -84,39 -121,64 -13,9 -23,18 -36,28 -19,15 -45,45 -59,66 -13,20 -29,62 -29,95z"/>
   <circle class="fil2 str3" cx="2141" cy="10429" r="30"/>
  </g>
 </g>
 <g id="Layer_x0020_1_1">
  <metadata id="CorelCorpID_1Corel-Layer"/>
  <polygon id="svg_2" class="fil0 str0" points="4011,5001 4795,5001 4795,5111 5579,5111 5579,5001 6133,5001 6133,5111 6917,5111 6917,5001 7702,5001 7702,5785 7591,5785 7591,6569 7702,6569 7702,7123 7591,7123 7591,7907 7702,7907 7702,8691 6917,8691 6917,8581 6133,8581 6133,8691 5579,8691 5579,8581 4795,8581 4795,8691 4011,8691 4011,7907 4121,7907 4121,7123 4011,7123 4011,6569 4121,6569 4121,5785 4011,5785 "/>
  <polygon id="svg_16" class="fil0 str0" points="4078,278 4751,278 4751,167 5536,167 5536,278 6089,278 6089,167 6874,167 6874,278 7547,278 7547,859 7658,859 7658,1551 7547,1551 7547,2105 7658,2105 7658,2658 7547,2658 7547,3212 7658,3212 7658,3904 7547,3904 7547,4485 6874,4485 6874,4596 6089,4596 6089,4485 5536,4485 5536,4596 4751,4596 4751,4485 4078,4485 4078,3904 3967,3904 3967,3212 4078,3212 4078,2658 3967,2658 3967,2105 4078,2105 4078,1551 3967,1551 3967,859 4078,859 "/>
  <polygon id="svg_12" class="fil0 str0" points="3912,5030 3912,5611 3802,5611 3802,6303 3800,9238 3128,9238 3128,9349 2344,9349 2344,9238 1790,9238 1790,9349 1006,9349 1006,9238 221,9238 221,8656 332,8656 332,7964 221,7964 221,7411 332,7411 332,6857 221,6857 221,6303 332,6303 332,5611 221,5611 221,5030 1006,5030 1006,4919 1790,4919 1790,5030 2344,5030 2344,4919 3128,4919 3128,5030 "/>
 </g>
</svg>
